<svg xmlns="http://www.w3.org/2000/svg" viewBox="0 0 32 32">
  <path fill="#fff" d="M16 2C8.268 2 2 8.268 2 16s6.268 14 14 14 14-6.268 14-14S23.732 2 16 2zm0 26c-6.627 0-12-5.373-12-12S9.373 4 16 4s12 5.373 12 12-5.373 12-12 12z"/>
  <path fill="#fff" d="M16 8a8 8 0 1 0 0 16 8 8 0 0 0 0-16zm0 14a6 6 0 1 1 0-12 6 6 0 0 1 0 12z"/>
  <circle fill="#fff" cx="16" cy="16" r="2"/>
  <path fill="#fff" d="M25.071 6.929a1 1 0 0 0-1.414 0l-5.657 5.657a1 1 0 0 0 1.414 1.414l5.657-5.657a1 1 0 0 0 0-1.414z"/>
</svg>
