<svg xmlns="http://www.w3.org/2000/svg" viewBox="0 0 64 64">
  <defs>
    <linearGradient id="fg" x1="0" y1="0" x2="1" y2="1">
      <stop offset="0" stop-color="#558ED9"/>
      <stop offset=".5" stop-color="#24386a"/>
      <stop offset="1" stop-color="#2B8629"/>
    </linearGradient>
    <linearGradient id="gold" x1="0" y1="0" x2="1" y2="0">
      <stop offset="0" stop-color="#DAD3A6"/>
      <stop offset="1" stop-color="#C4A86A"/>
    </linearGradient>
  </defs>
  <path fill="url(#fg)" d="M32 4L8 18v14c0 12 9 24 24 28 15-4 24-16 24-28V18L32 4z"/>
  <path fill="none" stroke="#1A2744" stroke-width="2" d="M32 4L8 18v14c0 12 9 24 24 28 15-4 24-16 24-28V18L32 4z"/>
  <path fill="url(#gold)" d="M32 14l-5 8h10zM32 26l-6 4 2 8 4-4 4 4 2-8z"/>
  <circle cx="32" cy="36" r="3" fill="#fff"/>
  <path fill="#fff" opacity=".6" d="M24 46c3 4 5 6 8 8 3-2 5-4 8-8-5-2-11-2-16 0z"/>
</svg>
